<?xml version="1.0" encoding="utf-8"?>
<!-- Generator: Adobe Illustrator 23.1.1, SVG Export Plug-In . SVG Version: 6.00 Build 0)  -->
<svg version="1.1" id="Layer_1" xmlns="http://www.w3.org/2000/svg" xmlns:xlink="http://www.w3.org/1999/xlink" x="0px" y="0px"
	 viewBox="0 0 1000 1000" style="enable-background:new 0 0 1000 1000;" xml:space="preserve">
<style type="text/css">
	.st0{fill:#487CA0;}
	.st1{fill:#5489B7;}
	.st2{fill:#201837;}
	.st3{fill:#FFFFFF;}
	.st4{fill:#BE2347;}
</style>
<g id="logo_1">
	<polygon class="st0" points="128.35,690.77 128.35,303.16 864.23,303.16 864.23,774.87 709.11,942.8 173.56,844.73 	"/>
	<g>
		<rect y="0" class="st0" width="1000" height="1000"/>
		<g>
			<path class="st1" d="M893.98,364.07v532.1H102.56V339.85c0-95.88,77.72-173.6,173.6-173.6h420
				C805.42,166.25,893.98,254.82,893.98,364.07z"/>
			<ellipse class="st1" cx="287.62" cy="331.16" rx="184.35" ry="201.58"/>
			<ellipse class="st1" cx="708.91" cy="331.16" rx="184.35" ry="201.58"/>
			<g>
				<path class="st2" d="M681.39,773.42c-8.29-11.19-40.84-3.49-60.29,10.92c-19.45,14.41-18.43,30.09-10.14,41.27
					c8.29,11.19,30.78,8.57,50.23-5.84C680.64,805.36,689.68,784.61,681.39,773.42z"/>
				<path class="st2" d="M318.86,773.42c8.29-11.19,40.84-3.49,60.29,10.92c19.45,14.41,18.43,30.09,10.14,41.27
					c-8.29,11.19-30.78,8.57-50.23-5.84C319.62,805.36,310.57,784.61,318.86,773.42z"/>
			</g>
			<g>
				<g>
					<circle class="st3" cx="699.06" cy="363.63" r="119.77"/>
					<circle class="st2" cx="706.25" cy="371.66" r="77.28"/>
					<circle class="st3" cx="757.87" cy="320.49" r="38.39"/>
				</g>
				<g>
					<circle class="st3" cx="306.35" cy="363.63" r="119.77"/>
					<circle class="st2" cx="299.17" cy="371.66" r="77.28"/>
					<circle class="st3" cx="349.34" cy="320.49" r="38.39"/>
				</g>
				<path class="st2" d="M841.17,241.77c-5.22,20.15-31.96-11.97-77.48-31.89c-43.3-18.95-93.41,9.11-88.19-11.04
					c5.22-20.15,49.33-37.65,95.08-25.79C816.33,184.9,846.39,221.62,841.17,241.77z"/>
				<path class="st2" d="M158.96,239.13c4.66,20.29,32.28-11.07,78.34-29.71c42.97-17.39,92.77,10.19,88.46-8.57
					c-4.66-20.29-48.26-39.01-94.32-28.44S154.3,218.84,158.96,239.13z"/>
			</g>
			<path class="st4" d="M894.77,710.12c-0.07,39.41-48.25,147.97-81.06,195.12h-90.09c10.16-13.36,45.93-98.17,53.29-114.93
				c24.27-55.22,23.92-126.75-63.23-200.49l69.5,3.72L782.46,515C782.46,515,894.96,595.59,894.77,710.12z"/>
			<path class="st0" d="M895.04,710.13V1000H101.5V710.12c0.35,0.69,0.7,1.38,1.06,2.08c42.12,81.52,151.64,176.15,397.57,176.63
				c106.17-0.21,185.47-17.96,244.68-44.64c3.72-1.68,7.37-3.39,10.93-5.14c52.87-25.87,88.66-59.03,112.88-92.48
				c8.36-11.54,19.13-23.12,25.37-34.45c0.27-0.48,0.53-0.97,0.78-1.45C894.86,710.49,894.95,710.31,895.04,710.13z"/>
		</g>
	</g>
</g>
</svg>
